<svg height="512" viewBox="0 0 60 60" width="512" xmlns="http://www.w3.org/2000/svg"><g id="Page-1" fill="none" fill-rule="evenodd"><g id="004---Opening-Gift" fill-rule="nonzero" transform="translate(-1 -1)"><path id="Shape" d="m19.59 30h31.41c.5522847 0 1 .4477153 1 1v27c-.0032948 1.1032019-.8967981 1.9967052-2 2h-32c-1.1032019-.0032948-1.9967052-.8967981-2-2v-24.41z" fill="#f44335"/><path id="Shape" d="m51 30h-3c.5522847 0 1 .4477153 1 1v27c-.0032948 1.1032019-.8967981 1.9967052-2 2h3c1.1032019-.0032948 1.9967052-.8967981 2-2v-27c0-.5522847-.4477153-1-1-1z" fill="#c81e1e"/><path id="Shape" d="m38.23 11.36-26.87 26.87c-.3900375.3877236-1.0199625.3877236-1.41 0l-4.95-4.95c-.37445618-.3736892-.58488806-.8809811-.58488806-1.41s.21043188-1.0363108.58488806-1.41l2.12-2.12 7.78-7.78 5.66-5.66 7.78-7.78 2.12-2.12c.3736892-.37445618.8809811-.58488806 1.41-.58488806s1.0363108.21043188 1.41.58488806l4.95 4.95c.3877236.3900375.3877236 1.0199625 0 1.41z" fill="#f44335"/><path id="Shape" d="m38.23 9.95-4.95-4.95c-.3736892-.37445618-.8809811-.58488806-1.41-.58488806s-1.0363108.21043188-1.41.58488806l-.09.09 4.86 4.86c.3877236.3900375.3877236 1.0199625 0 1.41l-26.075 26.075.8.795c.3900375.3877236 1.0199625.3877236 1.41 0l26.865-26.87c.3877236-.3900375.3877236-1.0199625 0-1.41z" fill="#c81e1e"/><path id="Rectangle-path" d="m16.264 16.264h10v10h-10z" fill="#ffdc00" transform="matrix(.707 -.707 .707 .707 -8.808 21.264)"/><path id="Shape" d="m21.264 14.193-1.5 1.5 5.571 5.571-5.571 5.571 1.5 1.5 7.071-7.071z" fill="#fec108"/><path id="Rectangle-path" d="m30 30h8v30h-8z" fill="#ffdc00"/><path id="Rectangle-path" d="m35 30h3v30h-3z" fill="#fec108"/><path id="Shape" d="m20.56 14.9-5.66 5.66c-2.5513437-.3664092-4.4060764-2.6122561-4.283571-5.1868635.1225054-2.5746073 2.1821002-4.6342021 4.7567075-4.7567075 2.5746074-.1225054 4.8204543 1.7322273 5.1868635 4.283571z" fill="#ffeb3a"/><path id="Shape" d="m14.9 20.56-7.78 7.78-4.24-4.25c-.74464161-.7440755-1.04480822-1.8240027-.79094075-2.8456145.25386747-1.0216119 1.02462128-1.8354186 2.03094075-2.1443855l6.71-2.04c.5597217 1.8594443 2.147706 3.2250327 4.07 3.5z" fill="#ffdc00"/><path id="Shape" d="m28.34 7.12-7.78 7.78c-.2749673-1.922294-1.6405557-3.5102783-3.5-4.07l2.04-6.71c.3089669-1.00631947 1.1227736-1.77707328 2.1443855-2.03094075 1.0216118-.25386747 2.101539.04629914 2.8456145.79094075z" fill="#ffdc00"/><path id="Shape" d="m43 26c-.424813.0001993-.8033866-.2680233-.9440546-.6688708-.1406679-.4008474-.0127245-.8468203.3190546-1.1121292.206-.164 5.069-4.05 8.07-6.051 1.7889074-1.2896427 4.1346003-1.5133152 6.135-.585 1.5784315.8948601 2.515423 2.6050632 2.42 4.417 0 .5522847-.4477153 1-1 1s-1-.4477153-1-1c.0974659-1.0738588-.4339307-2.1074329-1.364-2.653-1.3490043-.581001-2.9057441-.3959928-4.081.485-2.93 1.953-7.881 5.909-7.93 5.949-.1774122.1418687-.3978397.2191065-.625.219z" fill="#9d27b0"/><path id="Shape" d="m45 19c-.424813.0001993-.8033866-.2680233-.9440546-.6688708-.1406679-.4008474-.0127245-.8468203.3190546-1.1121292.206-.164 5.069-4.05 8.07-6.051 1.7889074-1.28964272 4.1346003-1.51331515 6.135-.585 1.5784315.8948601 2.515423 2.6050632 2.42 4.417 0 .5522847-.4477153 1-1 1s-1-.4477153-1-1c.0974659-1.0738588-.4339307-2.1074329-1.364-2.653-1.3490043-.581001-2.9057441-.3959928-4.081.485-2.93 1.953-7.881 5.909-7.93 5.949-.1774122.1418687-.3978397.2191065-.625.219z" fill="#9d27b0"/><path id="Shape" d="m40 17c-.4177668-.0001733-.7914017-.2600298-.9369408-.6516259-.1455391-.391596-.0323087-.8323991.2839408-1.1053741.032-.028 3.231-2.785 6.028-5.024 2.158-1.726 3.216-3.8 2.7-5.282-.436-1.231-1.92-1.937-4.075-1.937-.5522847 0-1-.44771525-1-1s.4477153-1 1-1c3.056 0 5.228 1.194 5.958 3.275.817 2.331-.459 5.207-3.333 7.506-2.769 2.215-5.94 4.949-5.972 4.976-.1814977.1566622-.4132408.2429005-.653.243z" fill="#9d27b0"/><g fill="#e91e63"><circle id="Oval" cx="40" cy="21" r="1"/><circle id="Oval" cx="35" cy="22" r="1"/><circle id="Oval" cx="54" cy="24" r="1"/><circle id="Oval" cx="55" cy="6" r="1"/><circle id="Oval" cx="38" cy="26" r="1"/></g><path id="Shape" d="m5.708 28.335-1.415 1.414c-1.16905805 1.1727537-1.16905805 3.0702463 0 4.243l4.95 4.949c.7809997.7807639 2.0470003.7807639 2.828 0l2.929-2.928v21.987c0 1.6568542 1.3431458 3 3 3h32c1.6568542 0 3-1.3431458 3-3v-27c0-1.1045695-.8954305-2-2-2h-28.987l7.029-7.029 9.9-9.9c.7807639-.7809997.7807639-2.0470003 0-2.828l-4.949-4.95c-.5626237-.56271905-1.3257625-.87885933-2.1215-.87885933s-1.5588763.31614028-2.1215.87885933l-1.415 1.415-3.535-3.536c-.9931004-.99402906-2.4349406-1.39408785-3.7982447-1.05387628-1.3633042.34021157-2.448128 1.37079755-2.8577553 2.71487628l-1.778 5.849c-1.8386978-.25295878-3.6897916.3694045-5.0021936 1.6818064-1.3124019 1.312402-1.93476518 3.1634958-1.6818064 5.0021936l-5.852 1.778c-1.34359201.4103611-2.37341659 1.4954966-2.71298885 2.8587011s.0608914 2.8046227 1.05498885 3.7972989zm4.949 9.192-4.949-4.949c-.18777704-.1875683-.29328666-.4420908-.29328666-.7075s.10550962-.5199317.29328666-.7075l8.485-8.485 5.657 5.657-.94.939c-.016.015-.031.03-.046.046l-3.544 3.544c-.016.015-.031.03-.046.046zm6.343 20.473v-23.987l3.013-3.013h8.987v28h-11c-.5522847 0-1-.4477153-1-1zm34 0c0 .5522847-.4477153 1-1 1h-11v-28h12zm-14-27v28h-6v-28zm-15.736-4.079-5.657-5.657 5.657-5.657 5.657 5.657zm9.9-21.213c.1875683-.18777704.4420908-.29328666.7075-.29328666s.5199317.10550962.7075.29328666l4.95 4.948-9.194 9.194-5.657-5.657zm-11.108-1.291c.2045195-.67252432.7470835-1.18830878 1.4290905-1.35855446.682007-.17024567 1.4033206.03004398 1.8999095.52755446l3.536 3.536-5.9 5.9c-.2928544-.6152403-.6881502-1.176229-1.169-1.659-.460342-.4496849-.990982-.8212342-1.571-1.1zm-7.278 8.361c1.5634816-1.5588888 4.0935184-1.5588888 5.657 0 .4978632.4971326.853218 1.1187443 1.029 1.8l-4.886 4.886c-.6810191-.175817-1.3025406-.5307748-1.8-1.028-1.559004-1.5638243-1.559004-4.0941757 0-5.658zm-9.717 8.711c.16577532-.6831505.68034532-1.2277656 1.353-1.432l5.852-1.778c.2783459.5802636.6499407 1.1109685 1.1 1.571.482771.4808498 1.0437597.8761456 1.659 1.169l-5.9 5.9-3.539-3.534c-.49826916-.4945176-.6979428-1.2156247-.525-1.896z" fill="#000"/></g></g></svg>