<svg xmlns="http://www.w3.org/2000/svg" width="45.7" height="45" viewBox="0 0 45.7 45">
  <g id="feedback" transform="translate(-16 -23.43)">
    <path id="Path_1001" data-name="Path 1001" d="M195.805,102.093l-11.046,11.046h-6.094l-2.285,2.285-8.38-8.38,9.9-9.9L176.557,94.9l-.939-1.565,4.919-4.919L180.95,88Z" transform="translate(-137.526 -58.421)" fill="#f6d0b1"/>
    <path id="Path_1002" data-name="Path 1002" d="M225.9,99.6v2.177a14.431,14.431,0,0,1-4.256,10.273L216,106.4l5.333-5.333-2.285-3.809,4.919-4.919A14.44,14.44,0,0,1,225.9,99.6Z" transform="translate(-180.955 -62.348)" fill="#f4c396"/>
    <path id="Path_1003" data-name="Path 1003" d="M166.474,37.251v2.177a13.005,13.005,0,0,1-3.809,9.2l-4.571,4.571-4.571-4.571,2.285-2.285V41.11a12.15,12.15,0,0,1,.429-3.2,12.161,12.161,0,0,0-3.133-11.8l-1.1-1.1a5.386,5.386,0,0,1,7.618,0l3.047,3.047c.277.277.541.567.789.866A13,13,0,0,1,166.474,37.251Z" transform="translate(-123.05 0)" fill="#f6d0b1"/>
    <path id="Path_1004" data-name="Path 1004" d="M0,0H4.309V16.16H0Z" transform="translate(26.66 50.908) rotate(-45)" fill="#c6d6e2"/>
    <path id="Path_1005" data-name="Path 1005" d="M35.045,322.283l4.571-4.571L25.9,304,16,313.9v8.38Z" transform="translate(0 -253.853)" fill="#8ccee9"/>
    <path id="Path_1006" data-name="Path 1006" d="M249.465,89.42v.07a4.218,4.218,0,0,1-4.505-6.915l1.486-1.485A13,13,0,0,1,249.465,89.42Z" transform="translate(-206.041 -52.169)" fill="#f4c396"/>
    <path id="Path_1007" data-name="Path 1007" d="M268.187,102.093l-5.342,5.342a4.215,4.215,0,0,1-3.806-3.809,4.214,4.214,0,0,1-3.809-3.809,4.214,4.214,0,0,1-3.809-3.809,4.172,4.172,0,0,1-2.482-1.111L248,93.333l4.919-4.919.413-.413Z" transform="translate(-209.908 -58.421)" fill="#f4c396"/>
    <g id="Group_2224" data-name="Group 2224" transform="translate(38.089 25.011)">
      <rect id="Rectangle_2176" data-name="Rectangle 2176" width="11.851" height="5.387" rx="2.693" transform="translate(0 8.378) rotate(-45)" fill="#f6d0b1"/>
      <path id="Path_1008" data-name="Path 1008" d="M2.693,0H9.157a2.693,2.693,0,0,1,0,5.387H2.693A2.693,2.693,0,1,1,2.693,0Z" transform="translate(3.808 12.187) rotate(-45)" fill="#f6d0b1"/>
      <rect id="Rectangle_2177" data-name="Rectangle 2177" width="11.851" height="5.387" rx="2.693" transform="translate(7.616 15.996) rotate(-45)" fill="#f6d0b1"/>
      <rect id="Rectangle_2178" data-name="Rectangle 2178" width="11.851" height="5.387" rx="2.693" transform="translate(11.424 19.805) rotate(-45)" fill="#f6d0b1"/>
    </g>
    <path id="Path_1009" data-name="Path 1009" d="M376,364.571A4.571,4.571,0,0,0,380.571,360a4.571,4.571,0,0,0,4.571,4.571,4.571,4.571,0,0,0-4.571,4.571A4.571,4.571,0,0,0,376,364.571Z" transform="translate(-325.719 -304.52)" fill="#f0c033"/>
    <path id="Path_1010" data-name="Path 1010" d="M408,27.809A3.809,3.809,0,0,0,411.809,24a3.809,3.809,0,0,0,3.809,3.809,3.809,3.809,0,0,0-3.809,3.809A3.809,3.809,0,0,0,408,27.809Z" transform="translate(-354.672 -0.516)" fill="#f0c033"/>
    <path id="Path_1011" data-name="Path 1011" d="M24,124.571h0A4.571,4.571,0,0,0,28.571,120a4.571,4.571,0,0,0,4.571,4.571,4.571,4.571,0,0,0-4.571,4.571A4.571,4.571,0,0,0,24,124.571Z" transform="translate(-7.238 -87.374)" fill="#f0c033"/>
    <path id="Path_1012" data-name="Path 1012" d="M296.762,94.856a.762.762,0,0,1-.539-1.3l5.333-5.333a.762.762,0,0,1,1.077,1.077L297.3,94.633a.759.759,0,0,1-.539.223Z" transform="translate(-253.337 -58.422)" fill="#f4c396"/>
    <path id="Path_1013" data-name="Path 1013" d="M336.762,134.856a.762.762,0,0,1-.539-1.3l5.333-5.333a.762.762,0,1,1,1.077,1.077l-5.333,5.333A.759.759,0,0,1,336.762,134.856Z" transform="translate(-289.528 -94.613)" fill="#f4c396"/>
    <path id="Path_1014" data-name="Path 1014" d="M376.762,174.856a.762.762,0,0,1-.539-1.3l5.333-5.333a.762.762,0,0,1,1.077,1.077l-5.333,5.333A.759.759,0,0,1,376.762,174.856Z" transform="translate(-325.719 -130.804)" fill="#f4c396"/>
  </g>
</svg>
