<svg xmlns="http://www.w3.org/2000/svg" width="56.773" height="45" viewBox="0 0 56.773 45">
  <g id="furniture" transform="translate(-10 -93.39)">
    <path id="Path_964" data-name="Path 964" d="M336.366,322.7l.014.062a2.685,2.685,0,0,0-2.138,2.6v.975h-.086l-15.156,0v-8.9a2.258,2.258,0,0,1,2.267-2.3h12.825a2.25,2.25,0,0,1,2.272,2.227Z" transform="translate(-272.904 -195.845)" fill="#43d7ef"/>
    <path id="Path_965" data-name="Path 965" d="M187.067,317.366l0,8.969-15,0h-.1v-.967a2.63,2.63,0,0,0-.8-1.883,2.726,2.726,0,0,0-1.551-.753h0l0-.025v-5.336a2.25,2.25,0,0,1,2.272-2.227h12.9A2.251,2.251,0,0,1,187.067,317.366Z" transform="translate(-140.974 -195.845)" fill="#6fe3ff"/>
    <path id="Path_966" data-name="Path 966" d="M454.914,382.542v8.17H449.48v-8.17a2.73,2.73,0,0,1,4.639-1.883A2.63,2.63,0,0,1,454.914,382.542Z" transform="translate(-388.142 -253.023)" fill="#f8ec7d"/>
    <path id="Path_967" data-name="Path 967" d="M220.055,410.958v5.569h-.079l-30.264-.009h0V410.95h.1l15,0,15.156,0Z" transform="translate(-158.717 -280.464)" fill="#e48e66"/>
    <path id="Path_968" data-name="Path 968" d="M219.97,247.88h3.766a1.884,1.884,0,1,1-3.766,0Z" transform="translate(-185.442 -136.443)" fill="#6fe3ff"/>
    <path id="Path_969" data-name="Path 969" d="M148.624,389.077v1.635H143.19v-8.17a2.7,2.7,0,0,1,2.717-2.662,2.768,2.768,0,0,1,.37.025h0a2.726,2.726,0,0,1,1.551.753,2.63,2.63,0,0,1,.8,1.883Z" transform="translate(-117.631 -253.023)" fill="#f8ec7d"/>
    <path id="Path_970" data-name="Path 970" d="M26.049,93.39a11.213,11.213,0,0,0-10.934,11.4c0,.012,0,.025,0,.037v32.157H10.7a.7.7,0,1,0,0,1.4H21.652a.7.7,0,1,0,0-1.4H16.515V104.87c0-.008,0-.016,0-.025a9.815,9.815,0,0,1,9.533-10.053,9.814,9.814,0,0,1,9.532,10.053.7.7,0,0,0,1.4,0A11.216,11.216,0,0,0,26.049,93.39Z" fill="#e48e66"/>
    <path id="Path_971" data-name="Path 971" d="M199.072,197.1v1.1H188.12v-1.1a5.476,5.476,0,1,1,10.952,0Z" transform="translate(-157.313 -86.76)" fill="#f8ec7d"/>
    <path id="Path_972" data-name="Path 972" d="M204.38,211.093a.7.7,0,0,1-.587-1.083,6.156,6.156,0,0,1,1.609-1.672.7.7,0,1,1,.81,1.144,4.766,4.766,0,0,0-1.244,1.293A.7.7,0,0,1,204.38,211.093Z" transform="translate(-171.054 -101.406)" fill="#e48e66"/>
  </g>
</svg>
