<svg xmlns="http://www.w3.org/2000/svg" width="370.644" height="424.508" viewBox="0 0 370.644 424.508">
  <g id="Group_3" data-name="Group 3" transform="translate(-427.384 -177.153)">
    <g id="gift_1_" data-name="gift (1)" transform="translate(798.028 601.661) rotate(180)">
      <path id="Path_1" data-name="Path 1" d="M315.147,209.269l-40.3,14.676a11.636,11.636,0,0,1-4.228.745H12.437A12.315,12.315,0,0,1,0,212.254V37.31A37.26,37.26,0,0,1,37.31,0H286.046a37.26,37.26,0,0,1,37.31,37.31V197.58A12.34,12.34,0,0,1,315.147,209.269Z" transform="translate(2.448 0)" fill="#fc1a40"/>
      <path id="Path_2" data-name="Path 2" d="M161.678,197.58V37.31A37.26,37.26,0,0,0,124.368,0H0V224.691H108.946a11.631,11.631,0,0,0,4.228-.745l40.3-14.676A12.34,12.34,0,0,0,161.678,197.58Z" transform="translate(164.126 0)" fill="#c60034"/>
      <path id="Path_3" data-name="Path 3" d="M217.357,62.682A50.35,50.35,0,0,1,183.28,98.749,49.556,49.556,0,0,1,135.026,88.3L106.172,62.931l-5.72,38.056a50.388,50.388,0,0,1-30.594,39.051,47.229,47.229,0,0,1-9.7,2.737,49.465,49.465,0,0,1-39.3-8.707A50.218,50.218,0,0,1,33.293,46.017l26.864-9.7L93.239,24.128h.249L150.946,2.986A53.369,53.369,0,0,1,168.356,0a50.683,50.683,0,0,1,49,62.682Z" transform="translate(103.97 280.748)" fill="#fe9923"/>
      <path id="Path_4" data-name="Path 4" d="M141.779,12.935A50.3,50.3,0,0,0,108.2,0,53.376,53.376,0,0,0,90.788,2.986L33.331,24.128h-.249L0,36.316v106.46a47.285,47.285,0,0,0,9.7-2.737,50.386,50.386,0,0,0,30.594-39.051l5.72-38.056L74.868,88.3A49.556,49.556,0,0,0,123.123,98.75a50.4,50.4,0,0,0,18.656-85.815Z" transform="translate(164.126 280.748)" fill="#fe8821"/>
      <path id="Path_5" data-name="Path 5" d="M368.338,54.722,351.424,7.96A12.6,12.6,0,0,0,339.732,0,11.627,11.627,0,0,0,335.5.745l-128.6,46.762-11.69,38.554L164.126,79.1l-27.36-6.218L8.169,119.642A12.658,12.658,0,0,0,.707,135.561L17.87,182.321a37.078,37.078,0,0,0,47.757,22.387l98.5-35.818,6.717-2.487s26.863-48.753,27.61-48.753c.5,0,11.193,5.97,21.64,11.691s20.892,11.69,20.892,11.69l104.966-38.3a37.7,37.7,0,0,0,21.142-19.4A36.814,36.814,0,0,0,368.338,54.722Z" transform="translate(0 175.691)" fill="#ff3e75"/>
      <path id="Path_6" data-name="Path 6" d="M204.212,54.722,187.3,7.96A12.6,12.6,0,0,0,175.606,0a11.628,11.628,0,0,0-4.228.745L42.782,47.508,31.092,86.062,0,79.1v89.793L6.717,166.4s26.863-48.753,27.61-48.753c.5,0,11.193,5.97,21.64,11.691s20.893,11.69,20.893,11.69l104.965-38.3a37.7,37.7,0,0,0,21.142-19.4A36.814,36.814,0,0,0,204.212,54.722Z" transform="translate(164.126 175.691)" fill="#fc1a40"/>
      <g id="Group_1" data-name="Group 1" transform="translate(126.816 0)">
        <path id="Path_7" data-name="Path 7" d="M0,224.691V0H74.621V224.691Z" transform="translate(0)" fill="#fcbf29"/>
        <path id="Path_8" data-name="Path 8" d="M34.077,118.9,27.36,100.49,0,25.371l27.36-9.95L58.452,4.228,70.142,0,104.22,93.524Z" transform="translate(9.949 223.198)" fill="#fcbf29"/>
      </g>
      <g id="Group_2" data-name="Group 2" transform="translate(164.126 0)">
        <rect id="Rectangle_2" data-name="Rectangle 2" width="37.31" height="224.691" transform="translate(0.003)" fill="#fe9923"/>
        <path id="Path_9" data-name="Path 9" d="M76.859,93.525,42.782,0,31.092,4.229,0,15.422V100.49L6.716,118.9Z" transform="translate(0 223.199)" fill="#fe9923"/>
      </g>
    </g>
  </g>
</svg>
