<svg enable-background="new 0 0 256 256" height="512" viewBox="0 0 256 256" width="512" xmlns="http://www.w3.org/2000/svg"><path d="m250.432 78.851c0 8.083-10.797 14.361-13.166 21.655-2.455 7.559 2.505 18.969-2.074 25.261-4.625 6.355-17.039 5.14-23.394 9.765-6.292 4.579-8.948 16.786-16.507 19.241-7.294 2.368-16.584-5.869-24.668-5.869-8.083 0-17.374 8.237-24.668 5.869-7.559-2.455-10.215-14.662-16.507-19.241-6.355-4.625-18.769-3.411-23.394-9.766-4.579-6.292.381-17.701-2.074-25.26-2.368-7.294-13.166-13.572-13.166-21.655s10.797-14.361 13.166-21.655c2.455-7.559-2.505-18.969 2.074-25.261 4.625-6.355 17.039-5.14 23.394-9.765 6.292-4.579 8.948-16.786 16.507-19.241 7.294-2.368 16.584 5.869 24.668 5.869 8.083 0 17.374-8.237 24.668-5.869 7.559 2.455 10.215 14.662 16.507 19.241 6.355 4.625 18.769 3.411 23.394 9.766 4.579 6.292-.381 17.701 2.074 25.26 2.368 7.294 13.166 13.571 13.166 21.655z" fill="#fc3850"/><g fill="#edf4fc"><path d="m145.626 60.285h-4.562c-1.691 0-3.062 1.371-3.062 3.062v17.722l-12.726-19.401c-.566-.863-1.528-1.383-2.56-1.383h-4.561c-1.691 0-3.062 1.371-3.062 3.062v35.341c0 1.691 1.371 3.062 3.062 3.062h4.561c1.691 0 3.062-1.371 3.062-3.062v-17.687l12.727 19.369c.566.861 1.528 1.38 2.559 1.38h4.562c1.691 0 3.062-1.371 3.062-3.062v-35.341c-.001-1.692-1.371-3.062-3.062-3.062z"/><path d="m171.409 70.118c1.691 0 3.062-1.371 3.062-3.062v-3.71c0-1.691-1.371-3.062-3.062-3.062h-19.5c-1.691 0-3.062 1.371-3.062 3.062v35.341c0 1.691 1.371 3.062 3.062 3.062h19.5c1.691 0 3.062-1.371 3.062-3.062v-3.709c0-1.691-1.371-3.062-3.062-3.062h-11.877v-6.209h10.373c1.691 0 3.062-1.371 3.062-3.062v-3.509c0-1.691-1.371-3.062-3.062-3.062h-10.373v-5.958h11.877z"/><path d="m225.508 61.467c-.58-.746-1.472-1.182-2.416-1.182h-5.013c-1.429 0-2.668.988-2.985 2.382l-4.136 18.156-5.119-18.301c-.37-1.323-1.576-2.237-2.949-2.237h-5.063c-1.374 0-2.58.916-2.949 2.239l-5.108 18.32-4.095-18.171c-.315-1.396-1.555-2.388-2.987-2.388h-5.063c-.945 0-1.838.437-2.418 1.183-.58.747-.783 1.72-.549 2.636l9.023 35.341c.346 1.356 1.567 2.304 2.967 2.304h5.564c1.37 0 2.573-.91 2.946-2.228l5.225-18.464 5.225 18.464c.373 1.318 1.576 2.228 2.946 2.228h5.564c1.4 0 2.623-.951 2.968-2.308l8.973-35.341c.232-.915.029-1.887-.551-2.633z"/></g><path d="m170.623 148.903c-8.083 0-17.374 8.237-24.668 5.869-7.559-2.455-10.215-14.662-16.507-19.241-6.355-4.625-18.769-3.411-23.394-9.766-4.579-6.292.381-17.701-2.074-25.26-2.056-6.331-10.459-11.898-12.642-18.544h-74.27c-6.325 0-11.5 5.175-11.5 11.5v148.538c0 6.325 5.175 11.5 11.5 11.5h148.538c6.325 0 11.5-5.175 11.5-11.5v-91.758c-2.205-.781-4.385-1.338-6.483-1.338z" fill="#bf6132"/><path d="m106.054 125.766c-4.579-6.292.381-17.701-2.074-25.26-2.056-6.331-10.459-11.898-12.642-18.544h-15.954v69.544h36.784v-21.623c-2.509-.914-4.685-2.153-6.114-4.117z" fill="#facb35"/><path d="m91.339 81.962h-15.955v69.544h18.048v-65.462c-.897-1.324-1.633-2.679-2.093-4.082z" fill="#fcac27"/><path d="m148.792 157.702c-1.215 0-2.42-.166-3.609-.552-5.178-1.682-8.167-6.677-11.059-11.507-1.972-3.295-3.834-6.407-6.147-8.09-2.358-1.716-5.929-2.542-9.709-3.416-5.446-1.259-11.078-2.561-14.235-6.9-3.124-4.293-2.634-10.02-2.16-15.558.319-3.724.648-7.575-.27-10.402-.859-2.646-3.209-5.337-5.698-8.187-3.731-4.273-7.589-8.69-7.589-14.24 0-5.549 3.858-9.967 7.589-14.24 2.489-2.85 4.839-5.542 5.698-8.188.918-2.828.589-6.678.271-10.402-.474-5.538-.964-11.265 2.16-15.558 3.159-4.339 8.79-5.641 14.236-6.9 3.78-.874 7.351-1.699 9.709-3.416 2.312-1.683 4.175-4.795 6.147-8.09 2.891-4.831 5.881-9.826 11.059-11.507 4.957-1.608 10.199.604 15.268 2.745 3.494 1.476 7.107 3.002 10.172 3.002s6.678-1.526 10.172-3.002c5.07-2.141 10.31-4.353 15.268-2.745 5.178 1.682 8.167 6.677 11.059 11.508 1.972 3.295 3.835 6.407 6.147 8.09 2.358 1.716 5.929 2.542 9.709 3.416 5.446 1.259 11.078 2.561 14.236 6.9 3.124 4.292 2.634 10.019 2.16 15.557-.319 3.724-.648 7.575.27 10.402.859 2.646 3.209 5.338 5.698 8.188 3.731 4.272 7.589 8.69 7.589 14.239s-3.858 9.967-7.589 14.24c-2.489 2.85-4.839 5.542-5.698 8.188-.918 2.828-.589 6.679-.271 10.403.474 5.538.964 11.265-2.16 15.557-3.158 4.339-8.79 5.641-14.236 6.9-3.78.874-7.351 1.699-9.708 3.415-2.312 1.683-4.175 4.795-6.147 8.09-2.892 4.831-5.881 9.826-11.059 11.507-4.958 1.61-10.198-.604-15.267-2.745-3.494-1.476-7.107-3.002-10.172-3.002s-6.678 1.526-10.173 3.002c-3.855 1.629-7.808 3.298-11.661 3.298zm.014-152.702c-.73 0-1.425.094-2.078.307-3.395 1.102-5.783 5.093-8.312 9.319-2.143 3.58-4.359 7.282-7.495 9.565-3.182 2.315-7.423 3.296-11.525 4.244-4.761 1.101-9.259 2.14-11.319 4.971-2.026 2.784-1.635 7.352-1.221 12.189.361 4.22.734 8.583-.496 12.373-1.175 3.62-3.978 6.829-6.688 9.932-3.269 3.743-6.355 7.278-6.355 10.951 0 3.674 3.087 7.208 6.355 10.951 2.71 3.103 5.513 6.312 6.688 9.932 1.23 3.79.857 8.153.496 12.373-.414 4.837-.805 9.405 1.221 12.189 2.06 2.831 6.557 3.87 11.319 4.971 4.102.948 8.343 1.929 11.525 4.244 3.137 2.283 5.352 5.985 7.495 9.565 2.529 4.226 4.918 8.217 8.312 9.319 3.186 1.036 7.359-.729 11.778-2.595 3.953-1.669 8.041-3.396 12.118-3.396s8.165 1.727 12.118 3.396c4.419 1.866 8.593 3.631 11.778 2.595 3.395-1.102 5.783-5.094 8.312-9.319 2.143-3.58 4.359-7.282 7.495-9.565 3.182-2.315 7.423-3.296 11.525-4.244 4.762-1.101 9.259-2.141 11.319-4.971 2.026-2.783 1.635-7.352 1.221-12.188-.361-4.22-.734-8.583.496-12.373 1.175-3.62 3.978-6.829 6.688-9.932 3.269-3.743 6.355-7.278 6.355-10.951s-3.087-7.208-6.355-10.95c-2.71-3.104-5.513-6.313-6.688-9.933-1.23-3.79-.857-8.153-.496-12.373.414-4.837.805-9.405-1.221-12.188-2.06-2.831-6.558-3.87-11.319-4.971-4.102-.948-8.343-1.929-11.525-4.244-3.136-2.283-5.352-5.985-7.495-9.565-2.529-4.226-4.918-8.217-8.312-9.319-3.185-1.036-7.359.729-11.778 2.595-3.953 1.67-8.04 3.396-12.118 3.396s-8.165-1.727-12.118-3.396c-3.513-1.486-6.871-2.904-9.7-2.904z"/><path d="m165.606 255.999h-148.538c-7.719 0-14-6.28-14-14v-148.538c0-7.72 6.28-14 14-14h74.271c1.08 0 2.038.694 2.375 1.72.945 2.876 3.494 5.796 5.959 8.62 2.709 3.104 5.51 6.312 6.686 9.932 1.23 3.79.857 8.153.496 12.373-.414 4.837-.805 9.405 1.221 12.189 2.06 2.831 6.557 3.87 11.319 4.971 4.102.948 8.343 1.929 11.525 4.244 3.137 2.283 5.352 5.985 7.495 9.565 2.529 4.226 4.918 8.217 8.312 9.319 3.186 1.036 7.359-.729 11.778-2.595 3.953-1.669 8.041-3.396 12.118-3.396 2.137 0 4.462.471 7.316 1.48.999.354 1.666 1.298 1.666 2.357v91.758c0 7.721-6.28 14.001-13.999 14.001zm-148.538-171.538c-4.962 0-9 4.038-9 9v148.538c0 4.962 4.037 9 9 9h148.538c4.962 0 9-4.038 9-9v-89.941c-1.535-.444-2.826-.655-3.982-.655-3.065 0-6.678 1.526-10.173 3.002-5.069 2.141-10.31 4.354-15.268 2.745-5.178-1.682-8.167-6.677-11.059-11.507-1.972-3.295-3.835-6.407-6.147-8.09-2.358-1.716-5.929-2.542-9.709-3.416-5.446-1.259-11.078-2.561-14.235-6.9-3.124-4.293-2.634-10.02-2.16-15.558.319-3.724.648-7.575-.27-10.402-.859-2.646-3.209-5.338-5.697-8.188-2.367-2.712-4.803-5.502-6.258-8.628z"/><path d="m112.168 154.006h-36.784c-1.381 0-2.5-1.119-2.5-2.5v-69.545c0-1.381 1.119-2.5 2.5-2.5h15.955c1.08 0 2.038.694 2.375 1.72.945 2.876 3.494 5.796 5.959 8.62 2.709 3.104 5.51 6.312 6.686 9.932 1.23 3.79.857 8.153.496 12.373-.414 4.837-.805 9.405 1.221 12.189.97 1.333 2.542 2.362 4.948 3.239.987.36 1.644 1.298 1.644 2.349v21.623c0 1.381-1.119 2.5-2.5 2.5zm-34.284-5h31.784v-17.439c-2.509-1.128-4.323-2.527-5.635-4.33-3.124-4.293-2.634-10.02-2.16-15.558.319-3.724.648-7.575-.27-10.402-.859-2.646-3.209-5.338-5.697-8.188-2.367-2.712-4.803-5.502-6.258-8.628h-11.764z"/><path d="m93.432 154.006h-18.048c-1.381 0-2.5-1.119-2.5-2.5v-69.545c0-1.381 1.119-2.5 2.5-2.5h15.955c1.081 0 2.039.694 2.375 1.721.352 1.072.936 2.204 1.787 3.46.28.414.43.902.43 1.402v65.462c.001 1.381-1.119 2.5-2.499 2.5zm-15.548-5h13.048v-62.215c-.505-.796-.932-1.569-1.285-2.329h-11.763z"/><path d="m145.625 104.25h-4.562c-1.878 0-3.616-.937-4.648-2.507l-8.138-12.385v9.33c0 3.066-2.495 5.562-5.562 5.562h-4.561c-3.066 0-5.562-2.495-5.562-5.562v-35.341c0-3.066 2.495-5.562 5.562-5.562h4.561c1.881 0 3.62.939 4.651 2.512l8.135 12.402v-9.353c0-3.066 2.495-5.562 5.562-5.562h4.562c3.067 0 5.562 2.495 5.562 5.562v35.341c0 3.067-2.495 5.563-5.562 5.563zm-19.847-25.75c.826 0 1.619.411 2.089 1.127l12.727 19.369c.104.159.28.253.47.253h4.562c.31 0 .562-.252.562-.562v-35.34c0-.31-.252-.562-.562-.562h-4.562c-.31 0-.562.252-.562.562v17.722c0 1.105-.726 2.079-1.785 2.396-1.055.316-2.199-.1-2.806-1.024l-12.726-19.401c-.104-.159-.28-.253-.47-.253h-4.561c-.31 0-.562.252-.562.562v35.341c0 .31.252.562.562.562h4.561c.31 0 .562-.252.562-.562v-17.69c0-1.105.725-2.079 1.784-2.395.238-.07.479-.105.717-.105z"/><path d="m171.409 104.25h-19.5c-3.066 0-5.562-2.495-5.562-5.562v-35.341c0-3.066 2.495-5.562 5.562-5.562h19.5c3.066 0 5.562 2.495 5.562 5.562v3.71c0 3.066-2.495 5.562-5.562 5.562h-9.377v.958h7.873c3.066 0 5.562 2.495 5.562 5.562v3.509c0 3.066-2.495 5.562-5.562 5.562h-7.873v1.209h9.377c3.066 0 5.562 2.495 5.562 5.562v3.709c-.001 3.064-2.496 5.56-5.562 5.56zm-19.5-41.465c-.31 0-.562.252-.562.562v35.341c0 .31.252.562.562.562h19.5c.31 0 .562-.252.562-.562v-3.709c0-.31-.252-.562-.562-.562h-11.877c-1.381 0-2.5-1.119-2.5-2.5v-6.209c0-1.381 1.119-2.5 2.5-2.5h10.373c.31 0 .562-.252.562-.562v-3.509c0-.31-.252-.562-.562-.562h-10.373c-1.381 0-2.5-1.119-2.5-2.5v-5.958c0-1.381 1.119-2.5 2.5-2.5h11.877c.31 0 .562-.252.562-.562v-3.71c0-.31-.252-.562-.562-.562h-19.5z"/><path d="m214.118 104.25h-5.564c-2.477 0-4.677-1.664-5.352-4.047l-2.819-9.964-2.819 9.963c-.675 2.383-2.875 4.047-5.352 4.047h-5.564c-2.543 0-4.759-1.721-5.389-4.186l-9.023-35.341c-.428-1.676-.064-3.421.997-4.788 1.046-1.346 2.688-2.15 4.392-2.15h5.063c2.618 0 4.849 1.784 5.425 4.337l1.914 8.491 2.442-8.761c.667-2.395 2.871-4.068 5.357-4.068h5.063c2.484 0 4.687 1.671 5.356 4.063l2.464 8.809 1.947-8.545c.58-2.547 2.81-4.326 5.422-4.326h5.013c1.729 0 3.33.783 4.391 2.148 1.061 1.364 1.425 3.107 1 4.782l-8.973 35.341c-.627 2.47-2.843 4.195-5.391 4.195zm-13.735-25.693c1.119 0 2.101.743 2.406 1.819l5.225 18.464c.068.241.29.409.541.409h5.564c.257 0 .481-.174.545-.423l8.973-35.341c.042-.167.004-.347-.101-.482v-.001c-.107-.138-.269-.216-.443-.216h-5.013c-.264 0-.489.18-.547.437l-4.136 18.157c-.254 1.116-1.233 1.916-2.376 1.944-1.137.048-2.161-.724-2.469-1.826l-5.12-18.301c-.067-.241-.29-.41-.541-.41h-5.063c-.251 0-.474.169-.541.411l-5.108 18.32c-.308 1.103-1.322 1.857-2.471 1.828-1.145-.029-2.124-.832-2.376-1.949l-4.095-18.171c-.058-.257-.283-.438-.548-.438h-5.063c-.172 0-.338.081-.443.217-.107.138-.144.314-.101.483l9.023 35.341c.063.249.287.423.544.423h5.564c.25 0 .473-.168.541-.409l5.225-18.464c.303-1.079 1.286-1.822 2.404-1.822z"/></svg>