<svg height="512" viewBox="0 0 64 64" width="512" xmlns="http://www.w3.org/2000/svg"><g id="Payment-Credit_Card" data-name="Payment-Credit Card"><rect fill="#00ccb3" height="30" rx="1" width="20" x="33" y="7"/><path d="m34 3h-30a1 1 0 0 0 -1 1v5h32v-5a1 1 0 0 0 -1-1z" fill="#ee8700"/><path d="m35 9v14l-2 4v21a1 1 0 0 1 -1 1h-26a1 1 0 0 1 -1-1v-21l-2-4v-14z" fill="#ff9811"/><path d="m37 7v16l-2 4v10h-1a1 1 0 0 1 -1-1v-9l2-4v-16z" fill="#00b39d"/><path d="m45 11h4v6h-4z" fill="#ff9811"/><path d="m16 39h6v6h-6z" fill="#78b9eb"/><path d="m22 33h6v6h-6z" fill="#78b9eb"/><path d="m10 33h6v6h-6z" fill="#78b9eb"/><path d="m16 27h6v6h-6z" fill="#78b9eb"/><g fill="#3d9ae2"><path d="m22 39h6v6h-6z"/><path d="m10 39h6v6h-6z"/><path d="m16 33h6v6h-6z"/><path d="m22 27h6v6h-6z"/><path d="m10 27h6v6h-6z"/></g><path d="m7 13h24v10h-24z" fill="#ffde55"/><path d="m61 53v8h-14v-8h1 12z" fill="#3d9ae2"/><path d="m58.66 24.67-5.01-8.67a4.163 4.163 0 0 0 -.65-.85v17.85h-1.17l-7.5-12.99a3 3 0 0 0 -5.2 3l6.87 11.89-.38 1.94c-.02.05-.03.1-.05.16a23.979 23.979 0 0 0 -.57 4.27v.85a14.006 14.006 0 0 0 1.99 7.19l1.01 1.69v2h12v-23.33a9.963 9.963 0 0 0 -1.34-5z" fill="#ffc477"/><path d="m38 10h2v2h-2z" fill="#00b39d"/><path d="m38 14h2v2h-2z" fill="#00b39d"/><path d="m38 30h2v4h-2z" fill="#00b39d"/><path d="m26 17h2v2h-2z" fill="#ebbf00"/><path d="m22 17h2v2h-2z" fill="#ebbf00"/><path d="m18 17h2v2h-2z" fill="#ebbf00"/><path d="m14 17h2v2h-2z" fill="#ebbf00"/></g></svg>