<svg xmlns="http://www.w3.org/2000/svg" width="56.795" height="45" viewBox="0 0 56.795 45">
  <g id="pics" transform="translate(0 -53.165)">
    <path id="Path_988" data-name="Path 988" d="M122.349,64.758V72.9h11.957V54.361a1.2,1.2,0,0,0-1.2-1.2H97.667a1.2,1.2,0,0,0-1.2,1.2v9.2h24.682A1.2,1.2,0,0,1,122.349,64.758Z" transform="translate(-85.77)" fill="#ff9b4b"/>
    <path id="Path_989" data-name="Path 989" d="M153.223,78.335H122.148a.6.6,0,0,0-.6.6v7.008h21.9a1.2,1.2,0,0,1,1.2,1.2V95.28h9.175V78.933A.6.6,0,0,0,153.223,78.335Z" transform="translate(-108.067 -22.378)" fill="#e86436"/>
    <path id="Path_990" data-name="Path 990" d="M122.148,78.335a.6.6,0,0,0-.6.6v7.008h3.2V78.335Z" transform="translate(-108.067 -22.378)" opacity="0.1"/>
    <path id="Path_991" data-name="Path 991" d="M19.844,147.239a1.2,1.2,0,0,1,1.2-1.2h16.8v-9.416a1.2,1.2,0,0,0-1.2-1.2H1.2a1.2,1.2,0,0,0-1.2,1.2v23.7a1.2,1.2,0,0,0,1.2,1.2H19.844V147.239Z" transform="translate(0 -73.141)" fill="#91cfe5"/>
    <path id="Path_992" data-name="Path 992" d="M42.141,169.617a1.2,1.2,0,0,1,1.2-1.2H57.3a.591.591,0,0,0,.045-.226v-7a.6.6,0,0,0-.6-.6H25.677a.6.6,0,0,0-.6.6v19.311a.6.6,0,0,0,.6.6H41.915a.593.593,0,0,0,.226-.045Z" transform="translate(-22.297 -95.519)" fill="#0184b8"/>
    <path id="Path_993" data-name="Path 993" d="M42.142,235.2a1.191,1.191,0,0,1,.024-.239,4.449,4.449,0,0,0-6.662,3.585,3.559,3.559,0,0,0-5.554,2.118,6.489,6.489,0,0,0-4.87.148v5.281a.6.6,0,0,0,.6.6H41.916a.593.593,0,0,0,.226-.045V235.2Z" transform="translate(-22.298 -161.102)" fill="#fff"/>
    <path id="Path_994" data-name="Path 994" d="M25.677,160.6a.6.6,0,0,0-.6.6v19.311a.6.6,0,0,0,.6.6h3.137V160.6Z" transform="translate(-22.297 -95.519)" opacity="0.1"/>
    <path id="Path_995" data-name="Path 995" d="M208.757,248.519a1.2,1.2,0,0,1-1.2,1.2H172.118a1.2,1.2,0,0,1-1.2-1.2v-23.7a1.2,1.2,0,0,1,1.2-1.2h35.443a1.2,1.2,0,0,1,1.2,1.2v23.7Z" transform="translate(-151.962 -151.549)" fill="#fbd33b"/>
    <path id="Path_996" data-name="Path 996" d="M196.6,269.3a.6.6,0,0,1-.6-.6V249.39a.6.6,0,0,1,.6-.6h31.075a.6.6,0,0,1,.6.6V268.7a.6.6,0,0,1-.6.6Z" transform="translate(-174.26 -173.927)" fill="#91cfe5"/>
    <path id="Path_997" data-name="Path 997" d="M305.67,336.267c-.232.233-.153.424.176.424h19.214a.6.6,0,0,0,.6-.6v-3.016a1.669,1.669,0,0,0-.422-1.021l-7.263-7.289a.6.6,0,0,0-.844,0Z" transform="translate(-271.644 -241.317)" fill="#a0c663"/>
    <ellipse id="Ellipse_170" data-name="Ellipse 170" cx="2.58" cy="2.59" rx="2.58" ry="2.59" transform="translate(29.316 78.061)" fill="#fbd33b"/>
    <path id="Path_998" data-name="Path 998" d="M266.334,280.2a2.59,2.59,0,0,1,1.554-2.376,2.59,2.59,0,1,0,0,4.753A2.59,2.59,0,0,1,266.334,280.2Z" transform="translate(-234.966 -199.546)" opacity="0.1"/>
    <path id="Path_999" data-name="Path 999" d="M208.943,350.354a.6.6,0,0,0-.844,0l-2.912,2.923a.6.6,0,0,1-.844,0l-4.58-4.6a.6.6,0,0,0-.844,0l-2.495,2.5a1.669,1.669,0,0,0-.422,1.022v5.148a.6.6,0,0,0,.6.6h19.314c.329,0,.408-.191.176-.424Z" transform="translate(-174.261 -262.579)" fill="#648c3a"/>
    <path id="Path_1000" data-name="Path 1000" d="M196.6,248.791a.6.6,0,0,0-.6.6V268.7a.6.6,0,0,0,.6.6h3.188V248.791H196.6Z" transform="translate(-174.26 -173.926)" opacity="0.1"/>
  </g>
</svg>
