<svg xmlns="http://www.w3.org/2000/svg" width="43.378" height="43.548" viewBox="0 0 43.378 43.548">
  <g id="language_icon" transform="translate(-258 -480.452)">
    <path id="Path_1016" data-name="Path 1016" d="M2.276,191.769a1.265,1.265,0,0,1-.657-.184A1.321,1.321,0,0,1,1,190.45V163.275A1.275,1.275,0,0,1,2.276,162H21.413a1.276,1.276,0,0,1,1.276,1.276V185.39a1.276,1.276,0,0,1-1.276,1.276H7.908l-4.73,4.73A1.275,1.275,0,0,1,2.276,191.769Z" transform="translate(257 332.23)" fill="#a4e9ff"/>
    <path id="Path_1017" data-name="Path 1017" d="M128.5,162v24.666h9.569a1.276,1.276,0,0,0,1.276-1.276V163.276A1.276,1.276,0,0,0,138.069,162Z" transform="translate(140.345 332.23)" fill="#91bbff"/>
    <path id="Path_1018" data-name="Path 1018" d="M276.414,29.769a1.275,1.275,0,0,1-.9-.374l-4.73-4.73H257.276A1.276,1.276,0,0,1,256,23.39V1.276A1.276,1.276,0,0,1,257.276,0h19.137a1.276,1.276,0,0,1,1.276,1.276V28.449a1.322,1.322,0,0,1-.618,1.137A1.266,1.266,0,0,1,276.414,29.769Z" transform="translate(23.689 480.452)" fill="#bee75e"/>
    <path id="Path_1019" data-name="Path 1019" d="M393.069,0H383.5V24.666h3.937l4.73,4.73a1.272,1.272,0,0,0,1.56.19,1.322,1.322,0,0,0,.618-1.137V1.276A1.276,1.276,0,0,0,393.069,0Z" transform="translate(-92.966 480.452)" fill="#00da80"/>
    <path id="Path_1021" data-name="Path 1021" d="M-3.733,0c.418,0,.741-.133.836-.494l.722-2.527H2.176L2.9-.494c.1.361.418.494.836.494C4.4,0,5.292-.437,5.292-1.026a.836.836,0,0,0-.038-.19L1.587-13.167C1.416-13.737.713-14-.009-14a1.543,1.543,0,0,0-1.577.836L-5.253-1.216a1.094,1.094,0,0,0-.038.19C-5.291-.418-4.4,0-3.733,0Zm2.071-4.959,1.653-5.833L1.644-4.959Z" transform="translate(268.081 512.791)" fill="#453d81"/>
    <path id="Path_1020" data-name="Path 1020" d="M1.248-7.635l.306.032q.139.014.315.014a5.012,5.012,0,0,0,1.174-.139,4.574,4.574,0,0,0,.969-.334v-5.771H8.456v2.087H6.434V0H4.012V-5.993a2.012,2.012,0,0,1-.288.111q-.176.056-.385.1t-.431.074a3.444,3.444,0,0,1-.427.028q.046.232.074.417a2.905,2.905,0,0,1,.028.427,3.447,3.447,0,0,1-.315,1.5A3.264,3.264,0,0,1,1.4-2.213a3.926,3.926,0,0,1-1.3.705,5.087,5.087,0,0,1-1.6.246,4.882,4.882,0,0,1-1.6-.25,5.02,5.02,0,0,1-1.317-.682A5.735,5.735,0,0,1-5.492-3.21a9.214,9.214,0,0,1-.863-1.257,12.246,12.246,0,0,1-.687-1.4q-.3-.728-.543-1.443l2.069-.835q.167.529.376,1.085a10.881,10.881,0,0,0,.473,1.081A8.084,8.084,0,0,0-4.082-5a4.715,4.715,0,0,0,.705.807,3.139,3.139,0,0,0,.835.547,2.388,2.388,0,0,0,.979.2A1.6,1.6,0,0,0-.315-3.915,1.814,1.814,0,0,0,.116-5.186,2.057,2.057,0,0,0-.042-6.03a1.6,1.6,0,0,0-.436-.584,1.754,1.754,0,0,0-.659-.339,3.048,3.048,0,0,0-.826-.107q-.093,0-.223,0t-.269.014l-.278.019L-2.973-7V-9.092a1.554,1.554,0,0,0,.172.009h.172a5.145,5.145,0,0,0,.9-.074,2.152,2.152,0,0,0,.724-.255A1.325,1.325,0,0,0-.524-9.9a1.5,1.5,0,0,0,.176-.761,1.2,1.2,0,0,0-.408-1.011,1.761,1.761,0,0,0-1.1-.315,3.681,3.681,0,0,0-1.021.144,8.1,8.1,0,0,0-.974.348l-.557-2.022A6.276,6.276,0,0,1-3.043-14,6.1,6.1,0,0,1-1.7-14.157a4.559,4.559,0,0,1,1.545.25,3.711,3.711,0,0,1,1.2.687A3.106,3.106,0,0,1,1.823-12.2,2.927,2.927,0,0,1,2.1-10.929a2.935,2.935,0,0,1-.413,1.517A3.758,3.758,0,0,1,.459-8.183l.009.046A3.307,3.307,0,0,1,.877-7.9Q1.072-7.774,1.248-7.635Z" transform="translate(289.226 500)" fill="#453d81"/>
  </g>
</svg>
